<?xml version="1.0" encoding="UTF-8" standalone="no"?>
<!-- Created with Inkscape (http://www.inkscape.org/) -->

<svg
   version="1.1"
   id="svg2"
   xml:space="preserve"
   width="768"
   height="409.05334"
   viewBox="0 0 768 409.05334"
   sodipodi:docname="Glaad_White.eps"
   xmlns:inkscape="http://www.inkscape.org/namespaces/inkscape"
   xmlns:sodipodi="http://sodipodi.sourceforge.net/DTD/sodipodi-0.dtd"
   xmlns="http://www.w3.org/2000/svg"
   xmlns:svg="http://www.w3.org/2000/svg"><defs
     id="defs6" /><sodipodi:namedview
     id="namedview4"
     pagecolor="#ffffff"
     bordercolor="#666666"
     borderopacity="1.0"
     inkscape:pageshadow="2"
     inkscape:pageopacity="0.0"
     inkscape:pagecheckerboard="0" /><g
     id="g8"
     inkscape:groupmode="layer"
     inkscape:label="ink_ext_XXXXXX"
     transform="matrix(1.3333333,0,0,-1.3333333,0,409.05333)"><g
       id="g10"
       transform="scale(0.1)"><path
         d="m 194.184,1373.82 c 0,-67.08 44.421,-118.78 120.812,-118.78 76.41,0 120.899,51.7 120.899,118.78 0,65.12 -44.489,119.87 -120.899,119.87 -76.391,0 -120.812,-54.75 -120.812,-119.87 z m 423.527,-216.97 c 0,-225.19 -111.633,-316.049 -306.848,-316.049 -121.879,0 -285.0388,63.058 -301.62081,202.419 H 219.988 c 5.157,-18.48 18.617,-32.03 35.071,-40.2 16.543,-8.258 36.187,-12.45 53.793,-12.45 101.238,0 120.816,66.16 120.816,151.85 v 24.86 C 381.113,1118.69 331.492,1094.84 261.289,1094.84 106.348,1094.84 0,1212.66 0,1365.48 c 0,155 109.469,287.28 271.602,287.28 62.07,0 118.796,-20.71 155.964,-73.41 h 2.102 v 55.84 h 188.043 v -478.34"
         style="fill:#ffffff;fill-opacity:1;fill-rule:nonzero;stroke:none"
         id="path12" /><path
         d="M 918.262,1105.36 H 730.266 v 857.25 h 187.996 v -857.25"
         style="fill:#ffffff;fill-opacity:1;fill-rule:nonzero;stroke:none"
         id="path14" /><path
         d="m 1193.03,1369.76 c 0,-67.26 44.45,-118.82 120.82,-118.82 76.51,0 120.85,51.56 120.85,118.82 0,65.02 -44.34,119.78 -120.85,119.78 -76.37,0 -120.82,-54.76 -120.82,-119.78 z m 423.51,-264.4 h -188 v 58.74 h -2.08 c -33.08,-52.66 -98.11,-76.43 -160.05,-76.43 -157.08,0 -267.601,131.15 -267.601,282.96 0,151.99 108.421,282.13 265.461,282.13 60.94,0 125.03,-22.76 164.27,-69.26 v 51.69 h 188 v -529.83"
         style="fill:#ffffff;fill-opacity:1;fill-rule:nonzero;stroke:none"
         id="path16" /><path
         d="m 1892.31,1369.76 c 0,-67.26 44.45,-118.82 120.86,-118.82 76.37,0 120.9,51.56 120.9,118.82 0,65.02 -44.53,119.78 -120.9,119.78 -76.41,0 -120.86,-54.76 -120.86,-119.78 z m 423.51,-264.4 h -188 v 58.74 h -2.14 c -33.01,-52.66 -98.04,-76.43 -160.1,-76.43 -156.97,0 -267.49,131.15 -267.49,282.96 0,151.99 108.44,282.13 265.48,282.13 60.92,0 125,-22.76 164.25,-69.26 v 51.69 h 188 v -529.83"
         style="fill:#ffffff;fill-opacity:1;fill-rule:nonzero;stroke:none"
         id="path18" /><path
         d="m 2598.76,1369.76 c 0,-67.26 44.51,-118.82 120.95,-118.82 76.41,0 120.86,51.56 120.86,118.82 0,65.02 -44.45,119.78 -120.86,119.78 -76.44,0 -120.95,-54.76 -120.95,-119.78 z m 235.61,-205.66 h -2.06 c -33.05,-52.66 -98.1,-76.43 -160.15,-76.43 -157.06,0 -267.54,131.15 -267.54,282.96 0,151.99 108.49,282.13 265.53,282.13 60.94,0 124.96,-22.76 164.22,-69.26 v 379.11 h 187.99 v -857.25 h -187.99 v 58.74"
         style="fill:#ffffff;fill-opacity:1;fill-rule:nonzero;stroke:none"
         id="path20" /><path
         d="m 3971.05,1584.59 c 5.97,9.35 11.66,18.88 17.43,28.36 -10.56,199.68 -60.7,388.95 -142.91,559.75 l -359.19,-210.14 c 57.9,-131.06 90.13,-276.09 90.13,-428.62 0,-149.81 -31.18,-292.4 -87.17,-421.65 194.62,118.76 359.56,280.83 481.71,472.3"
         style="fill:#ffffff;fill-opacity:1;fill-rule:nonzero;stroke:none"
         id="path22" /><path
         d="m 4428.14,1609.83 c -1.93,278.95 -63.18,544.87 -172.01,785.15 -3.25,-308.52 -99.8,-594.73 -262.92,-831.57 C 3862.97,1374.2 3690.31,1216.38 3489,1103.8 l 356.57,-208.609 c 244.32,166.849 445.07,392.819 582.07,657.119 0.31,14.63 0.52,29.24 0.52,43.81 0,4.58 0,9.16 -0.02,13.71"
         style="fill:#ffffff;fill-opacity:1;fill-rule:nonzero;stroke:none"
         id="path24" /><path
         d="m 4462.99,1616.73 c 1.14,-27.44 1.77,-55.11 1.77,-82.8 0,-309.2 -72.15,-601.578 -200.37,-861.379 252.09,234.578 451.04,524.719 577.64,850.239 11.3,29.07 21.93,58.45 32.07,88.06 -11.64,363.26 -105.34,705.89 -263.24,1009.72 L 4256.29,2413.1 v -1.19 c 121.62,-240.66 194.77,-510.1 206.7,-795.18"
         style="fill:#ffffff;fill-opacity:1;fill-rule:nonzero;stroke:none"
         id="path26" /><path
         d="m 5297.7,1625 c -0.22,431.26 -97.72,841.34 -272.22,1208.59 27.64,-157.55 38.96,-303.25 38.96,-425.99 0,-322.71 -66.35,-629.84 -186.1,-908.66 -140.71,-327.47 -355.09,-615.78 -622.36,-844.01 l 354.88,-207.571 c 302.19,285.403 538.38,639.941 683.44,1038.241 0.6,12.59 1.18,25.19 1.62,37.82 1.17,33.97 1.68,67.86 1.78,101.58"
         style="fill:#ffffff;fill-opacity:1;fill-rule:nonzero;stroke:none"
         id="path28" /><path
         d="m 5760,1533.94 c 0,554.87 -139.29,1077.19 -384.81,1533.92 v 0.04 c 0,0 -319.98,-187.29 -354.53,-207.56 l 0.15,-0.71 c 194.8,-367.42 311.16,-782.83 326.77,-1223.86 1.06,-33.54 1.74,-67.25 1.74,-101.09 -0.02,-0.32 -0.02,-0.32 0.03,-0.73 0,-479.15 -118.94,-930.43 -328.88,-1326.18 L 5020.4,207.66 5375.19,0 C 5620.71,456.75 5760,979.082 5760,1533.94"
         style="fill:#ffffff;fill-opacity:1;fill-rule:nonzero;stroke:none"
         id="path30" /></g></g></svg>
